{
    "asset" : {
        "generator" : "Khronos glTF Blender I/O v0.9.36",
        "version" : "2.0"
    },
    "scene" : 0,
    "scenes" : [
        {
            "name" : "Scene",
            "nodes" : [
                0,
                1,
                2,
                3,
                4,
                5,
                6
            ]
        }
    ],
    "nodes" : [
        {
            "mesh" : 0,
            "name" : "Floor"
        },
        {
            "name" : "Light",
            "rotation" : [
                0.0937708243727684,
                0.8844267129898071,
                -0.24556873738765717,
                -0.3856066167354584
            ],
            "translation" : [
                -18.61532974243164,
                37.56370162963867,
                -31.845277786254883
            ]
        },
        {
            "name" : "Camera",
            "rotation" : [
                0.483536034822464,
                0.33687159419059753,
                -0.20870360732078552,
                0.7804827094078064
            ],
            "translation" : [
                -11.566473007202148,
                6.930103302001953,
                -24.709274291992188
            ]
        },
        {
            "mesh" : 1,
            "name" : "Wall1",
            "translation" : [
                26,
                2,
                0
            ]
        },
        {
            "mesh" : 2,
            "name" : "Wall2",
            "translation" : [
                -27,
                2,
                0
            ]
        },
        {
            "mesh" : 3,
            "name" : "Wall3",
            "translation" : [
                0,
                2,
                2
            ]
        },
        {
            "name" : "Spawn",
            "translation" : [
                -21.932584762573242,
                1,
                -20
            ]
        }
    ],
    "materials" : [
        {
            "doubleSided" : true,
            "name" : "Floor",
            "pbrMetallicRoughness" : {
                "baseColorFactor" : [
                    0.04202776402235031,
                    0.01849634386599064,
                    0.004555242136120796,
                    1
                ],
                "metallicFactor" : 0,
                "roughnessFactor" : 0.5
            }
        },
        {
            "doubleSided" : true,
            "name" : "Wall",
            "pbrMetallicRoughness" : {
                "baseColorFactor" : [
                    0.8000000715255737,
                    0.5737027525901794,
                    0.41169273853302,
                    1
                ],
                "metallicFactor" : 0,
                "roughnessFactor" : 0.5
            }
        }
    ],
    "meshes" : [
        {
            "name" : "Cube",
            "primitives" : [
                {
                    "attributes" : {
                        "POSITION" : 0,
                        "NORMAL" : 1,
                        "TEXCOORD_0" : 2
                    },
                    "indices" : 3,
                    "material" : 0
                }
            ]
        },
        {
            "name" : "Cube.001",
            "primitives" : [
                {
                    "attributes" : {
                        "POSITION" : 4,
                        "NORMAL" : 5,
                        "TEXCOORD_0" : 6
                    },
                    "indices" : 7,
                    "material" : 1
                }
            ]
        },
        {
            "name" : "Cube.002",
            "primitives" : [
                {
                    "attributes" : {
                        "POSITION" : 8,
                        "NORMAL" : 9,
                        "TEXCOORD_0" : 10
                    },
                    "indices" : 7,
                    "material" : 1
                }
            ]
        },
        {
            "name" : "Cube.003",
            "primitives" : [
                {
                    "attributes" : {
                        "POSITION" : 11,
                        "NORMAL" : 12,
                        "TEXCOORD_0" : 13
                    },
                    "indices" : 7,
                    "material" : 1
                }
            ]
        }
    ],
    "accessors" : [
        {
            "bufferView" : 0,
            "componentType" : 5126,
            "count" : 88,
            "max" : [
                25,
                3,
                1
            ],
            "min" : [
                -26,
                -1,
                -32
            ],
            "type" : "VEC3"
        },
        {
            "bufferView" : 1,
            "componentType" : 5126,
            "count" : 88,
            "type" : "VEC3"
        },
        {
            "bufferView" : 2,
            "componentType" : 5126,
            "count" : 88,
            "type" : "VEC2"
        },
        {
            "bufferView" : 3,
            "componentType" : 5123,
            "count" : 144,
            "type" : "SCALAR"
        },
        {
            "bufferView" : 4,
            "componentType" : 5126,
            "count" : 24,
            "max" : [
                1,
                7,
                3
            ],
            "min" : [
                -1,
                -3,
                -32
            ],
            "type" : "VEC3"
        },
        {
            "bufferView" : 5,
            "componentType" : 5126,
            "count" : 24,
            "type" : "VEC3"
        },
        {
            "bufferView" : 6,
            "componentType" : 5126,
            "count" : 24,
            "type" : "VEC2"
        },
        {
            "bufferView" : 7,
            "componentType" : 5123,
            "count" : 36,
            "type" : "SCALAR"
        },
        {
            "bufferView" : 8,
            "componentType" : 5126,
            "count" : 24,
            "max" : [
                1,
                7,
                3
            ],
            "min" : [
                -1,
                -3,
                -32
            ],
            "type" : "VEC3"
        },
        {
            "bufferView" : 9,
            "componentType" : 5126,
            "count" : 24,
            "type" : "VEC3"
        },
        {
            "bufferView" : 10,
            "componentType" : 5126,
            "count" : 24,
            "type" : "VEC2"
        },
        {
            "bufferView" : 11,
            "componentType" : 5126,
            "count" : 24,
            "max" : [
                25,
                7,
                1
            ],
            "min" : [
                -26,
                -3,
                -1
            ],
            "type" : "VEC3"
        },
        {
            "bufferView" : 12,
            "componentType" : 5126,
            "count" : 24,
            "type" : "VEC3"
        },
        {
            "bufferView" : 13,
            "componentType" : 5126,
            "count" : 24,
            "type" : "VEC2"
        }
    ],
    "bufferViews" : [
        {
            "buffer" : 0,
            "byteLength" : 1056,
            "byteOffset" : 0
        },
        {
            "buffer" : 0,
            "byteLength" : 1056,
            "byteOffset" : 1056
        },
        {
            "buffer" : 0,
            "byteLength" : 704,
            "byteOffset" : 2112
        },
        {
            "buffer" : 0,
            "byteLength" : 288,
            "byteOffset" : 2816
        },
        {
            "buffer" : 0,
            "byteLength" : 288,
            "byteOffset" : 3104
        },
        {
            "buffer" : 0,
            "byteLength" : 288,
            "byteOffset" : 3392
        },
        {
            "buffer" : 0,
            "byteLength" : 192,
            "byteOffset" : 3680
        },
        {
            "buffer" : 0,
            "byteLength" : 72,
            "byteOffset" : 3872
        },
        {
            "buffer" : 0,
            "byteLength" : 288,
            "byteOffset" : 3944
        },
        {
            "buffer" : 0,
            "byteLength" : 288,
            "byteOffset" : 4232
        },
        {
            "buffer" : 0,
            "byteLength" : 192,
            "byteOffset" : 4520
        },
        {
            "buffer" : 0,
            "byteLength" : 288,
            "byteOffset" : 4712
        },
        {
            "buffer" : 0,
            "byteLength" : 288,
            "byteOffset" : 5000
        },
        {
            "buffer" : 0,
            "byteLength" : 192,
            "byteOffset" : 5288
        }
    ],
    "buffers" : [
        {
            "byteLength" : 5480,
            "uri" : "data:application/octet-stream;base64,"
        }
    ]
}
